<svg width="96" height="29" viewBox="0 0 96 29" fill="none" xmlns="http://www.w3.org/2000/svg">
<path d="M17.52 13.56C20.32 12.64 22.2 10.48 22.2 7.16C22.2 2.52 18.56 -1.90735e-06 12.56 -1.90735e-06H0.88V28H13.36C20.24 28 23.68 25.32 23.68 20.6C23.68 16.72 21.48 14.32 17.52 13.56ZM12.48 1.76C17.32 1.76 20.12 3.64 20.12 7.32C20.12 11.04 17.32 12.92 12.48 12.92H2.92V1.76H12.48ZM13.36 26.24H2.92V14.68H13.36C18.72 14.68 21.64 16.44 21.64 20.44C21.64 24.48 18.72 26.24 13.36 26.24ZM47.9981 17.48C47.9981 11.28 43.7581 6.96 38.0381 6.96C32.3181 6.96 28.0381 11.36 28.0381 17.56C28.0381 23.76 32.4781 28.16 38.7981 28.16C41.9581 28.16 44.8381 27 46.6781 24.76L45.5181 23.44C43.9181 25.4 41.4781 26.36 38.8381 26.36C33.8381 26.36 30.1981 23 29.9981 18.04H47.9581C47.9581 17.84 47.9981 17.64 47.9981 17.48ZM38.0381 8.72C42.4781 8.72 45.7581 11.96 46.0381 16.48H30.0381C30.3581 11.92 33.5981 8.72 38.0381 8.72ZM60.6394 6.96C57.3994 6.96 54.3594 8.08 52.2794 9.92L53.2794 11.36C54.9994 9.8 57.5994 8.72 60.4794 8.72C64.5594 8.72 66.6794 10.8 66.6794 14.68V16.36H59.5194C53.7194 16.36 51.7194 19.04 51.7194 22.2C51.7194 25.76 54.5594 28.16 59.2394 28.16C62.8794 28.16 65.4394 26.68 66.7594 24.28V28H68.6794V14.76C68.6794 9.6 65.7994 6.96 60.6394 6.96ZM59.5194 26.52C55.8394 26.52 53.7194 24.84 53.7194 22.12C53.7194 19.72 55.2394 17.92 59.5594 17.92H66.6794V21.84C65.4794 24.84 63.0394 26.52 59.5194 26.52ZM93.1997 7.12V18.24C93.1997 23.2 90.2797 26.36 85.5597 26.36C81.1997 26.36 78.6797 23.88 78.6797 19.16V7.12H76.6797V19.32C76.6797 25.16 80.0797 28.16 85.3997 28.16C89.0797 28.16 91.9197 26.44 93.2797 23.52V28H95.1997V7.12H93.1997Z" fill="#C31162"/>
</svg>
