<svg width="80" height="80" viewBox="0 0 80 80" fill="none" xmlns="http://www.w3.org/2000/svg">
<rect width="80" height="80" rx="5" fill="#FF6068"/>
<path d="M40.2279 16.3003C38.4644 14.5666 35.6247 14.5666 33.891 16.3003L16.9728 33.2185C15.2391 34.9522 15.2391 37.7918 16.9728 39.5554C18.7663 41.3488 21.6358 41.2293 23.3097 39.5554L40.2279 22.6371C41.0676 21.7964 41.5392 20.6569 41.5392 19.4687C41.5392 18.2805 41.0676 17.1409 40.2279 16.3003ZM48.687 24.7594C48.2728 24.34 47.7794 24.0071 47.2355 23.7799C46.6916 23.5526 46.1081 23.4356 45.5186 23.4356C44.9292 23.4356 44.3456 23.5526 43.8017 23.7799C43.2578 24.0071 42.7644 24.34 42.3502 24.7594L25.4319 41.6776C25.0126 42.0919 24.6796 42.5852 24.4524 43.1291C24.2252 43.673 24.1082 44.2566 24.1082 44.8461C24.1082 45.4355 24.2252 46.0191 24.4524 46.563C24.6796 47.1069 25.0126 47.6002 25.4319 48.0145C27.2254 49.8079 30.0949 49.6585 31.7688 48.0145L48.687 31.0962C50.4207 29.3626 50.4207 26.5229 48.687 24.7594ZM51.8555 44.8461L64.3499 57.3405C66.1134 59.0741 66.1134 61.9138 64.3499 63.6773C62.5863 65.4409 59.7467 65.4409 58.013 63.6773L45.5186 51.1829L40.2279 56.4736C38.4644 58.2073 35.6247 58.2073 33.891 56.4736C32.1275 54.7101 32.1275 51.8704 33.891 50.1069L50.8093 33.2185C51.2235 32.7992 51.7169 32.4662 52.2608 32.239C52.8047 32.0118 53.3883 31.8948 53.9777 31.8948C54.5672 31.8948 55.1508 32.0118 55.6947 32.239C56.2385 32.4662 56.7319 32.7992 57.1462 33.2185C58.8798 34.9522 58.8798 37.7918 57.1462 39.5554L51.8555 44.8461ZM23.9673 56.1747C23.9673 51.4221 19.0054 44.2184 19.0054 44.2184C19.0054 44.2184 15 52.528 15 56.1747C15 59.8214 16.7935 62.1529 19.0054 62.1529H19.9619C22.1738 62.1529 23.9673 60.9274 23.9673 56.1747Z" fill="white"/>
</svg>
