<svg width="80" height="80" viewBox="0 0 80 80" fill="none" xmlns="http://www.w3.org/2000/svg">
<rect width="80" height="80" rx="5" fill="#FF6068"/>
<path d="M63.0066 38.7966C64.6971 40.4948 65.6462 42.7934 65.6462 45.1895C65.6462 47.5857 64.6971 49.8843 63.0066 51.5824C61.3085 53.2729 59.0099 54.222 56.6137 54.222C54.2176 54.222 51.919 53.2729 50.2208 51.5824L49.198 50.0181C49.198 61.0289 43.1811 63.1949 40.3231 65C37.8562 63.1949 31.4483 61.1492 31.4483 50.0181L30.4254 51.5824C28.7272 53.2729 26.4286 54.222 24.0325 54.222C21.6363 54.222 19.3377 53.2729 17.6396 51.5824C15.9491 49.8843 15 47.5857 15 45.1895C15 42.7934 15.9491 40.4948 17.6396 38.7966C17.6396 38.7966 20.7082 36.781 23.9573 34.8857C21.301 31.3105 19.8664 26.975 19.8658 22.5211C19.8658 21.4982 19.9561 20.5054 20.1065 19.5126C20.8637 24.7434 23.5721 29.4939 27.6877 32.8099C29.7034 31.7569 33.2533 30.3129 34.8177 30.0421H34.3063C30.997 30.0421 28.2894 27.3345 28.2894 24.0253C28.2894 20.716 30.997 18.0084 34.3063 18.0084V16.5042C34.3063 15.6619 34.9681 15 35.8105 15C36.6528 15 37.3147 15.6619 37.3147 16.5042V18.0084H43.3315V16.5042C43.3315 15.6619 43.9934 15 44.8357 15C45.6781 15 46.34 15.6619 46.34 16.5042V18.0084C49.6492 18.0084 52.3568 20.716 52.3568 24.0253C52.3568 27.3345 49.6492 30.0421 46.34 30.0421H45.8285C47.3628 30.3129 51.1835 31.8773 52.9886 32.8099C57.1042 29.4939 59.8126 24.7434 60.5698 19.5126C60.7202 20.5054 60.8105 21.4982 60.8105 22.5211C60.8105 27.154 59.2762 31.426 56.719 34.8857C59.9681 36.781 63.0066 38.7966 63.0066 38.7966ZM35.8105 27.0337C37.3147 27.0337 38.8189 25.6799 38.8189 24.0253C38.8189 22.3706 37.4651 21.0168 35.8105 21.0168C34.1558 21.0168 32.802 22.3706 32.802 24.0253C32.802 25.6799 34.1558 27.0337 35.8105 27.0337ZM44.8357 21.0168C43.1811 21.0168 41.8273 22.3706 41.8273 24.0253C41.8273 25.6799 43.1811 27.0337 44.8357 27.0337C46.4904 27.0337 47.8442 25.6799 47.8442 24.0253C47.8442 22.3706 46.4904 21.0168 44.8357 21.0168ZM37.9164 38.2551C37.5554 38.586 37.3448 39.0373 37.3448 39.5487C37.3746 39.9213 37.5421 40.2695 37.8146 40.5253C38.0872 40.7811 38.4452 40.9263 38.8189 40.9326H41.8273C42.201 40.9263 42.5591 40.7811 42.8316 40.5253C43.1041 40.2695 43.2716 39.9213 43.3014 39.5487C43.3014 39.0975 43.0909 38.6763 42.7298 38.2551C42.4735 38.0487 42.1563 37.9324 41.8273 37.9242H38.8189C38.4579 37.9242 38.157 38.0746 37.9164 38.2551ZM46.34 45.4452C46.34 45.0842 46.1594 44.6029 45.7684 44.302C45.508 44.0784 45.1788 43.951 44.8357 43.941H35.8105C35.4495 43.941 35.1486 44.0915 34.8779 44.302C34.5469 44.6029 34.3063 45.0542 34.3063 45.4452C34.3063 46.2876 34.9681 46.9495 35.8105 46.9495H44.8357C45.6781 46.9495 46.34 46.2876 46.34 45.4452ZM35.8105 52.9663H44.8357C45.6781 52.9663 46.34 52.3045 46.34 51.4621C46.34 50.6197 45.6781 49.9579 44.8357 49.9579H35.8105C34.9681 49.9579 34.3063 50.6197 34.3063 51.4621C34.3063 52.3045 34.9681 52.9663 35.8105 52.9663ZM38.8189 58.9832H41.8273C42.6697 58.9832 43.3315 58.3213 43.3315 57.4789C43.3315 56.6366 42.6697 55.9747 41.8273 55.9747H38.8189C37.9765 55.9747 37.3147 56.6366 37.3147 57.4789C37.3147 58.3213 37.9765 58.9832 38.8189 58.9832Z" fill="white"/>
</svg>
