<svg width="80" height="80" viewBox="0 0 80 80" fill="none" xmlns="http://www.w3.org/2000/svg">
<rect width="80" height="80" rx="5" fill="#FF6068"/>
<path d="M42 15C55.8 15 67 26.2 67 40C67 53.8 55.8 65 42 65C28.2 65 17 53.8 17 40C17 26.2 28.2 15 42 15ZM42 16.25C28.875 16.25 18.25 26.875 18.25 40C18.25 53.125 28.875 63.75 42 63.75C55.125 63.75 65.75 53.125 65.75 40C65.75 26.875 55.125 16.25 42 16.25ZM42 18.75C53.75 18.75 63.25 28.25 63.25 40C63.25 51.75 53.75 61.25 42 61.25C30.25 61.25 20.75 51.75 20.75 40C20.75 28.25 30.25 18.75 42 18.75ZM46.5 23.025C45.075 23.025 43.75 23.45 42.625 24.15C44.5667 24.611 46.2963 25.7129 47.5346 27.2778C48.773 28.8427 49.4478 30.7794 49.45 32.775C49.45 34.5 48.925 36.1 48.075 37.45C49.6984 37.0927 51.1511 36.1915 52.1922 34.8957C53.2334 33.5999 53.8007 31.9873 53.8 30.325C53.8 26.3 50.525 23.025 46.5 23.025ZM40.55 25.525C39.5782 25.509 38.6129 25.6867 37.7106 26.048C36.8083 26.4092 35.987 26.9466 35.2947 27.6288C34.6024 28.311 34.0531 29.1244 33.6787 30.0213C33.3043 30.9183 33.1124 31.8808 33.1142 32.8528C33.1161 33.8247 33.3116 34.7865 33.6893 35.6821C34.0671 36.5776 34.6195 37.3888 35.3143 38.0685C36.0092 38.7481 36.8325 39.2824 37.7362 39.6402C38.6398 39.9981 39.6058 40.1722 40.5775 40.1525C42.4939 40.1136 44.3184 39.3242 45.6587 37.9539C46.9989 36.5836 47.7478 34.742 47.7442 32.8253C47.7406 30.9085 46.9848 29.0697 45.6394 27.7045C44.294 26.3393 42.4665 25.5566 40.55 25.525ZM51.175 38.05L49.9 39.525C55.75 41.25 56.025 48.55 56.025 48.55H59.225C59.225 36.775 51.175 38.05 51.175 38.05ZM45.925 40.05L40.625 45.275L35.325 40.05C24.8 40.6 26.725 52.5 26.725 52.5H54.425C55.6 40.05 45.925 40.05 45.925 40.05Z" fill="white"/>
</svg>
