<svg width="80" height="80" viewBox="0 0 80 80" fill="none" xmlns="http://www.w3.org/2000/svg">
<rect width="80" height="80" rx="5" fill="#FF6068"/>
<path d="M45.0868 30.2201L59.098 55.7006C55.9981 61.9002 48.2486 65 42.049 65C35.8493 65 28.0998 61.9002 25 55.7006L38.9492 30.3441C36.6243 26.5313 31.8816 24.2064 25.651 24.0515L33.2765 15C38.4842 18.6888 40.902 22.1916 42.483 25.2604C44.2189 22.5635 46.2027 20.0527 50.8525 18.6888L56.5251 27.5542C52.1234 26.5003 48.3416 27.8022 45.0868 30.2201ZM36.3763 41.4414L33.4935 46.6801C35.0124 47.0211 36.5933 47.1761 38.2672 47.1761C42.452 47.1761 46.2647 46.0601 49.2715 44.2312L46.1407 38.5896C43.4439 40.2325 40.0651 41.2554 36.3763 41.4414ZM39.0422 58.1184C45.2108 58.1184 50.6045 55.8246 53.7353 52.3528L50.6975 46.8971C47.5976 50.3689 42.204 52.6937 36.0043 52.6937C34.0825 52.6937 32.2536 52.4458 30.5487 52.0428L28.5958 55.6076C31.5096 57.1575 35.1054 58.1184 39.0422 58.1184Z" fill="white"/>
</svg>
