<svg width="80" height="80" viewBox="0 0 80 80" fill="none" xmlns="http://www.w3.org/2000/svg">
<rect width="80" height="80" rx="5" fill="#FF6068"/>
<path d="M50.8125 30.625H28.9375C26.3438 30.625 24.25 28.5312 24.25 25.9375C24.25 23.3438 26.3438 21.25 28.9375 21.25H33.9062C33.7319 20.7469 33.637 20.2198 33.625 19.6875C33.625 17.0938 35.7188 15 38.3125 15H41.4375C44.0312 15 46.125 17.0938 46.125 19.6875C46.125 20.25 46 20.75 45.8438 21.25H50.8125C53.4062 21.25 55.5 23.3438 55.5 25.9375C55.5 28.5312 53.4062 30.625 50.8125 30.625ZM21.125 33.75H58.625C60.3438 33.75 61.75 35.1562 61.75 36.875C61.75 38.5938 60.3438 40 58.625 40H21.125C19.4062 40 18 38.5938 18 36.875C18 35.1562 19.4062 33.75 21.125 33.75ZM24.25 43.125H55.5C57.2188 43.125 58.625 44.5312 58.625 46.25C58.625 47.9688 57.2188 49.375 55.5 49.375H24.25C22.5312 49.375 21.125 47.9688 21.125 46.25C21.125 44.5312 22.5312 43.125 24.25 43.125ZM30.5 52.5H49.25C50.9688 52.5 52.375 53.9062 52.375 55.625C52.375 57.3438 50.9688 58.75 49.25 58.75H45.8438C46 59.25 46.125 59.75 46.125 60.3125C46.125 62.9062 44.0312 65 41.4375 65H38.3125C35.7188 65 33.625 62.9062 33.625 60.3125C33.625 59.75 33.75 59.25 33.9062 58.75H30.5C28.7812 58.75 27.375 57.3438 27.375 55.625C27.375 53.9062 28.7812 52.5 30.5 52.5Z" fill="white"/>
</svg>
