<svg width="80" height="80" viewBox="0 0 80 80" fill="none" xmlns="http://www.w3.org/2000/svg">
<rect width="80" height="80" rx="5" fill="#FF6068"/>
<path d="M59.1478 28.2812C64.8666 31.2188 65.3353 38.2187 61.3353 43.8437C58.8353 47.3438 54.0541 49.7188 50.5228 49.4062L42.2728 65H38.9916L30.7103 49.4062C27.1791 49.9062 22.1791 47.4375 19.6166 43.8125C15.6166 38.1875 16.0853 31.1875 21.8353 28.2812C23.3353 27.5312 24.8353 27.25 26.3041 27.3125C26.2728 28.5625 26.3353 29.8125 26.5228 31.0938C27.3353 36.375 30.9291 42.125 35.4603 44.75C34.8666 46.4688 33.9291 47.8438 32.7103 48.6562L38.9916 60.5625V42.875C34.7416 41.7188 30.4291 36.125 29.6166 30.625C28.3666 22.3437 32.7416 15 40.5541 15C48.3666 15 52.7416 22.3437 51.4916 30.625C50.6791 36.125 46.3666 41.7188 42.1166 42.875V60.9062L48.5853 48.9062C47.2103 48.1875 46.1791 46.6875 45.4916 44.8438C50.1166 42.25 53.7728 36.4375 54.5853 31.0938C54.7728 29.8125 54.8353 28.5312 54.8041 27.2812C56.2416 27.25 57.6791 27.5312 59.1478 28.2812Z" fill="white"/>
</svg>
