<svg width="698" height="286" viewBox="0 0 698 286" fill="none" xmlns="http://www.w3.org/2000/svg">
<path d="M60.59 0.999996H51.68L31.43 34.21L11.27 0.999996H1.64L26.66 42.04V64H35.57V42.22L60.59 0.999996ZM95.4369 64.72C114.607 64.72 128.827 51.04 128.827 32.5C128.827 13.96 114.607 0.28 95.4369 0.28C76.0869 0.28 61.8669 14.05 61.8669 32.5C61.8669 50.95 76.0869 64.72 95.4369 64.72ZM95.4369 56.71C81.3069 56.71 70.8669 46.45 70.8669 32.5C70.8669 18.55 81.3069 8.29 95.4369 8.29C109.387 8.29 119.827 18.55 119.827 32.5C119.827 46.45 109.387 56.71 95.4369 56.71ZM168.683 64.72C185.333 64.72 195.323 55.09 195.323 36.82V0.999996H186.593V36.46C186.593 50.41 180.113 56.71 168.773 56.71C157.433 56.71 151.043 50.41 151.043 36.46V0.999996H142.043V36.82C142.043 55.09 152.123 64.72 168.683 64.72ZM265.704 64L250.764 42.85C259.584 39.7 264.624 32.68 264.624 22.96C264.624 9.28 254.724 0.999996 238.344 0.999996H213.774V64H222.774V44.83H238.344C239.694 44.83 241.044 44.74 242.304 44.65L255.894 64H265.704ZM238.074 37.18H222.774V8.83H238.074C249.594 8.83 255.624 13.96 255.624 22.96C255.624 31.96 249.594 37.18 238.074 37.18ZM315.845 64H324.755V8.83H346.355V0.999996H294.245V8.83H315.845V64ZM356.157 64H365.157V0.999996H356.157V64ZM451.068 64L450.978 0.999996H443.598L417.678 45.28L391.398 0.999996H384.018V64H392.658V18.37L415.428 56.35H419.568L442.338 18.1L442.428 64H451.068ZM478.975 56.17V35.83H510.565V28.18H478.975V8.83H514.435V0.999996H469.975V64H515.695V56.17H478.975ZM531.957 64.54C535.197 64.54 537.897 61.93 537.897 58.33C537.897 54.73 535.197 52.21 531.957 52.21C528.627 52.21 525.837 54.73 525.837 58.33C525.837 61.93 528.627 64.54 531.957 64.54ZM60.59 111H51.68L31.43 144.21L11.27 111H1.64L26.66 152.04V174H35.57V152.22L60.59 111ZM95.4369 174.72C114.607 174.72 128.827 161.04 128.827 142.5C128.827 123.96 114.607 110.28 95.4369 110.28C76.0869 110.28 61.8669 124.05 61.8669 142.5C61.8669 160.95 76.0869 174.72 95.4369 174.72ZM95.4369 166.71C81.3069 166.71 70.8669 156.45 70.8669 142.5C70.8669 128.55 81.3069 118.29 95.4369 118.29C109.387 118.29 119.827 128.55 119.827 142.5C119.827 156.45 109.387 166.71 95.4369 166.71ZM168.683 174.72C185.333 174.72 195.323 165.09 195.323 146.82V111H186.593V146.46C186.593 160.41 180.113 166.71 168.773 166.71C157.433 166.71 151.043 160.41 151.043 146.46V111H142.043V146.82C142.043 165.09 152.123 174.72 168.683 174.72ZM265.704 174L250.764 152.85C259.584 149.7 264.624 142.68 264.624 132.96C264.624 119.28 254.724 111 238.344 111H213.774V174H222.774V154.83H238.344C239.694 154.83 241.044 154.74 242.304 154.65L255.894 174H265.704ZM238.074 147.18H222.774V118.83H238.074C249.594 118.83 255.624 123.96 255.624 132.96C255.624 141.96 249.594 147.18 238.074 147.18ZM327.905 111H303.335V174H312.335V154.92H327.905C344.285 154.92 354.185 146.64 354.185 132.96C354.185 119.28 344.285 111 327.905 111ZM327.635 147.09H312.335V118.83H327.635C339.155 118.83 345.185 123.96 345.185 132.96C345.185 141.96 339.155 147.09 327.635 147.09ZM367.407 174H410.517V166.17H376.407V111H367.407V174ZM468.178 174H477.628L449.008 111H440.098L411.568 174H420.838L427.768 158.25H461.248L468.178 174ZM430.918 151.05L444.508 120.18L458.098 151.05H430.918ZM514.317 174.72C524.127 174.72 532.587 171.3 538.347 164.82L532.497 159.15C527.637 164.28 521.697 166.71 514.767 166.71C500.547 166.71 490.017 156.45 490.017 142.5C490.017 128.55 500.547 118.29 514.767 118.29C521.697 118.29 527.637 120.63 532.497 125.76L538.347 120.09C532.587 113.61 524.127 110.28 514.407 110.28C495.237 110.28 481.017 123.87 481.017 142.5C481.017 161.13 495.237 174.72 514.317 174.72ZM560.186 166.17V145.83H591.776V138.18H560.186V118.83H595.646V111H551.186V174H596.906V166.17H560.186ZM613.168 174.54C616.408 174.54 619.108 171.93 619.108 168.33C619.108 164.73 616.408 162.21 613.168 162.21C609.838 162.21 607.048 164.73 607.048 168.33C607.048 171.93 609.838 174.54 613.168 174.54ZM64.19 221H49.88L33.05 248.99L16.22 221H0.74L25.13 261.5V284H39.71V261.68L64.19 221ZM98.0757 285.08C117.876 285.08 132.546 271.31 132.546 252.5C132.546 233.69 117.876 219.92 98.0757 219.92C78.1857 219.92 63.6057 233.78 63.6057 252.5C63.6057 271.22 78.1857 285.08 98.0757 285.08ZM98.0757 272.66C86.8257 272.66 78.3657 264.47 78.3657 252.5C78.3657 240.53 86.8257 232.34 98.0757 232.34C109.326 232.34 117.786 240.53 117.786 252.5C117.786 264.47 109.326 272.66 98.0757 272.66ZM171.493 285.08C189.403 285.08 200.023 274.82 200.023 256.28V221H185.623V255.74C185.623 267.71 180.493 272.66 171.583 272.66C162.763 272.66 157.543 267.71 157.543 255.74V221H142.963V256.28C142.963 274.82 153.583 285.08 171.493 285.08ZM270.231 284L256.101 263.75C264.291 260.24 269.061 253.31 269.061 243.86C269.061 229.73 258.531 221 241.701 221H214.431V284H229.011V266.45H241.701H242.421L254.571 284H270.231ZM254.301 243.86C254.301 250.7 249.801 254.84 240.891 254.84H229.011V232.88H240.891C249.801 232.88 254.301 236.93 254.301 243.86Z" fill="#EBBAD8"/>
<path d="M352.361 251.24C357.491 248.54 360.731 243.68 360.731 237.38C360.731 227.57 352.631 221 336.881 221H306.101V284H338.681C355.241 284 363.881 277.7 363.881 266.81C363.881 258.89 359.381 253.49 352.361 251.24ZM335.081 231.98C342.191 231.98 346.061 234.41 346.061 239.36C346.061 244.31 342.191 246.83 335.081 246.83H320.591V231.98H335.081ZM337.601 273.02H320.591V257.45H337.601C345.161 257.45 349.211 259.97 349.211 265.28C349.211 270.68 345.161 273.02 337.601 273.02ZM389.409 272.3V257.72H418.659V246.38H389.409V232.7H422.529V221H374.919V284H423.699V272.3H389.409ZM482.37 284H497.67L469.5 221H455.1L427.02 284H441.96L447.54 270.5H476.79L482.37 284ZM452.22 259.43L462.21 235.31L472.2 259.43H452.22ZM530.878 285.08C548.788 285.08 559.408 274.82 559.408 256.28V221H545.008V255.74C545.008 267.71 539.878 272.66 530.968 272.66C522.148 272.66 516.928 267.71 516.928 255.74V221H502.348V256.28C502.348 274.82 512.968 285.08 530.878 285.08ZM585.811 284H600.391V232.88H620.551V221H565.651V232.88H585.811V284ZM681.973 221H667.663L650.833 248.99L634.003 221H618.523L642.913 261.5V284H657.493V261.68L681.973 221ZM688.966 284.72C693.826 284.72 697.696 281.03 697.696 275.9C697.696 270.68 693.826 267.26 688.966 267.26C684.106 267.26 680.236 270.68 680.236 275.9C680.236 281.03 684.106 284.72 688.966 284.72Z" fill="#FF6068"/>
</svg>
